<svg version="1" xmlns="http://www.w3.org/2000/svg" width="165.333" height="165.333" viewBox="0 0 124.000000 124.000000"><path d="M25.4 1c-5 1.9-5 1.4-4.9 61.8v56.4l2.8 2.4 2.8 2.4h35.4c24.2 0 36.2-.4 37.9-1.1 4.4-2 4.6-4.4 4.4-38.9l-.3-32.5h-38v15l13 .5 13 .5-.1 13.8c0 9.4-.4 14.1-1.2 14.9-1.6 1.6-53.7 1.9-55.8.3-1.1-.8-1.4-8.3-1.5-40.3-.2-33.9 0-39.5 1.3-40.8 1.3-1.3 5.7-1.6 26.9-1.6 14-.1 26.4.2 27.5.6 2.7.8 3 2.1 2.9 12.8 0 4.9.2 8.8.5 8.9.3 0 3 .1 6 .2l5.5.1.3-14.5c.4-17.2-.6-20.4-6.7-21.3-5.7-.8-69.4-.4-71.7.4z"/></svg>